<svg width="40" height="40" viewBox="0 0 40 40" fill="none" xmlns="http://www.w3.org/2000/svg">
<circle cx="20" cy="20" r="19" stroke="#2F80ED" stroke-width="2"/>
<path d="M18.6289 24.1953C18.6289 23.625 18.6484 23.1562 18.6875 22.7891C18.7266 22.4219 18.8008 22.1055 18.9102 21.8398C19.0273 21.5742 19.2031 21.3086 19.4375 21.043C19.6719 20.7773 19.9883 20.4648 20.3867 20.1055C21.2148 19.3555 21.7773 18.6797 22.0742 18.0781C22.3789 17.4688 22.5312 16.8477 22.5312 16.2148C22.5312 15.3867 22.3086 14.75 21.8633 14.3047C21.4258 13.8594 20.7969 13.6367 19.9766 13.6367C19.2656 13.6367 18.6602 13.832 18.1602 14.2227C17.668 14.6055 17.4219 15.1719 17.4219 15.9219H15.2188L15.1836 15.8516C15.168 15.0156 15.3633 14.2852 15.7695 13.6602C16.1836 13.0352 16.7539 12.5508 17.4805 12.207C18.207 11.8633 19.0391 11.6914 19.9766 11.6914C21.5156 11.6914 22.7109 12.0859 23.5625 12.875C24.4141 13.6562 24.8398 14.75 24.8398 16.1562C24.8398 16.8281 24.7266 17.4414 24.5 17.9961C24.2812 18.543 23.9492 19.0938 23.5039 19.6484C23.0586 20.1953 22.5 20.8086 21.8281 21.4883C21.5547 21.7695 21.3555 22.0273 21.2305 22.2617C21.1055 22.4883 21.0234 22.75 20.9844 23.0469C20.9531 23.3359 20.9375 23.7188 20.9375 24.1953H18.6289ZM18.6055 29V26.5625H21.0078V29H18.6055Z" fill="#2F80ED"/>
</svg>
