<svg width="40" height="40" viewBox="0 0 40 40" fill="none" xmlns="http://www.w3.org/2000/svg">
<path d="M25.5601 22.3198L29.6401 18.7998C30.0801 18.3998 30.2401 17.7998 30.0801 17.2398C29.8801 16.6798 29.4001 16.2798 28.8001 16.2398L23.4801 15.7998L21.4001 10.8398C21.1601 10.2798 20.6401 9.95976 20.0401 9.95976C19.4401 9.95976 18.9201 10.3198 18.6801 10.8398L16.6001 15.7998L11.2801 16.2398C10.6801 16.2798 10.2001 16.6798 10.0001 17.2398C9.80007 17.7998 10.0001 18.3998 10.4401 18.7998L14.5201 22.2798L13.2801 27.4798C13.1601 28.0398 13.3601 28.6398 13.8401 28.9998C14.3201 29.3598 14.9601 29.3598 15.4401 29.0798L20.0001 26.2798L24.5601 29.0798C24.8001 29.2398 25.0401 29.2798 25.3201 29.2798C25.6401 29.2798 25.9201 29.1998 26.1601 28.9998C26.6401 28.6398 26.8401 28.0398 26.7201 27.4798L25.5601 22.3198ZM24.4401 21.1598C24.0401 21.5198 23.8401 22.0798 23.9601 22.5998L25.1201 27.5598L20.8001 24.8798C20.5601 24.7198 20.3201 24.6798 20.0401 24.6798C19.7601 24.6798 19.5201 24.7598 19.2801 24.8798L14.9201 27.5198L16.0801 22.5598C16.2001 22.0398 16.0401 21.4798 15.6001 21.1198L11.7201 17.7998L16.8001 17.3998C17.3601 17.3598 17.8001 16.9998 18.0401 16.5198L20.0001 11.7998L22.0001 16.5198C22.2001 17.0398 22.6801 17.3598 23.2401 17.3998L28.3201 17.7998L24.4401 21.1598Z" fill="#2F80ED"/>
<path d="M20.04 6.32C20.48 6.32 20.84 5.96 20.84 5.52V1.8C20.84 1.36 20.48 1 20.04 1C19.6 1 19.24 1.36 19.24 1.8V5.52C19.24 5.96 19.6 6.32 20.04 6.32Z" fill="#2F80ED"/>
<path d="M9.19986 10.2801C9.35986 10.4401 9.55986 10.5201 9.75986 10.5201C9.95986 10.5201 10.1599 10.4401 10.3199 10.2801C10.6399 9.96011 10.6399 9.44011 10.3199 9.16011L7.71986 6.56011C7.39986 6.24011 6.87986 6.24011 6.59986 6.56011C6.27986 6.88011 6.27986 7.40011 6.59986 7.68011L9.19986 10.2801Z" fill="#2F80ED"/>
<path d="M5.52 19.1598H1.8C1.36 19.1598 1 19.5198 1 19.9598C1 20.3998 1.36 20.7598 1.8 20.7598H5.52C5.96 20.7598 6.32 20.3998 6.32 19.9598C6.32 19.5198 5.96 19.1598 5.52 19.1598Z" fill="#2F80ED"/>
<path d="M9.16007 29.64L6.56007 32.24C6.24007 32.56 6.24007 33.08 6.56007 33.36C6.72007 33.52 6.92007 33.6 7.12007 33.6C7.32007 33.6 7.52007 33.52 7.68007 33.36L10.2801 30.76C10.6001 30.44 10.6001 29.92 10.2801 29.64C9.96007 29.32 9.44007 29.32 9.16007 29.64Z" fill="#2F80ED"/>
<path d="M19.9599 33.6799C19.5199 33.6799 19.1599 34.0399 19.1599 34.4799V38.1999C19.1599 38.6399 19.5199 38.9999 19.9599 38.9999C20.3999 38.9999 20.7599 38.6399 20.7599 38.1999V34.4799C20.7599 34.0399 20.3999 33.6799 19.9599 33.6799Z" fill="#2F80ED"/>
<path d="M30.7999 29.7199C30.4799 29.3999 29.9599 29.3999 29.6799 29.7199C29.3599 30.0399 29.3599 30.5599 29.6799 30.8399L32.2799 33.4399C32.4399 33.5999 32.6399 33.6799 32.8399 33.6799C33.0399 33.6799 33.2399 33.5999 33.3999 33.4399C33.7199 33.1199 33.7199 32.5999 33.3999 32.3199L30.7999 29.7199Z" fill="#2F80ED"/>
<path d="M38.1999 19.2402H34.4799C34.0399 19.2402 33.6799 19.6002 33.6799 20.0402C33.6799 20.4802 34.0399 20.8402 34.4799 20.8402H38.1999C38.6399 20.8402 38.9999 20.4802 38.9999 20.0402C38.9999 19.6002 38.6399 19.2402 38.1999 19.2402Z" fill="#2F80ED"/>
<path d="M30.28 10.6C30.48 10.6 30.68 10.52 30.84 10.36L33.44 7.75999C33.76 7.43999 33.76 6.91999 33.44 6.63999C33.12 6.31999 32.6 6.31999 32.32 6.63999L29.72 9.19999C29.4 9.51999 29.4 10.04 29.72 10.32C29.88 10.52 30.08 10.6 30.28 10.6Z" fill="#2F80ED"/>
</svg>
