<svg width="32" height="32" viewBox="0 0 32 32" fill="none" xmlns="http://www.w3.org/2000/svg">
<path d="M16 10.3999C15.5584 10.3999 15.2 10.7583 15.2 11.1999V19.1999C15.2 19.6415 15.5584 19.9999 16 19.9999C16.4416 19.9999 16.8 19.6415 16.8 19.1999V11.1999C16.8 10.7583 16.4416 10.3999 16 10.3999Z" fill="#2F80ED"/>
<path d="M25.5855 10.7456L27.7663 8.5664C28.0784 8.2544 28.0784 7.7472 27.7663 7.4352C27.4543 7.1232 26.9471 7.1232 26.6351 7.4352L24.4544 9.6144C22.384 7.7872 19.7264 6.624 16.8 6.44V1.6H20.7999C21.2416 1.6 21.6 1.2416 21.6 0.8C21.6 0.3584 21.2416 0 20.7999 0H11.2C10.7584 0 10.4 0.3584 10.4 0.8C10.4 1.2416 10.7584 1.6 11.2 1.6H15.2V6.44C8.51515 6.856 3.19995 12.4112 3.19995 19.2C3.19995 26.2576 8.94235 32 16 32C23.0576 32 28.7999 26.2576 28.7999 19.2C28.7999 15.9584 27.5791 13.0032 25.5855 10.7456ZM16 30.4C9.82395 30.4 4.79995 25.3744 4.79995 19.2C4.79995 13.0256 9.82395 8 16 8C22.1759 8 27.1999 13.0256 27.1999 19.2C27.1999 25.3744 22.1759 30.4 16 30.4Z" fill="#2F80ED"/>
</svg>
