<svg width="32" height="30" viewBox="0 0 32 30" fill="none" xmlns="http://www.w3.org/2000/svg">
<path d="M20.2515 0.618896H11.7475C10.1619 0.618896 8.87112 1.9089 8.87112 3.4945V6.6221H5.36952C2.61112 6.6221 0.36792 8.86569 0.36792 11.6237V24.3797C0.36792 27.1381 2.61152 29.3813 5.36952 29.3813H26.6299C29.3883 29.3813 31.6323 27.1377 31.6323 24.3797V11.6237C31.6323 8.86529 29.3883 6.6221 26.6299 6.6221H23.1275V3.4945C23.1271 1.9085 21.8367 0.618896 20.2515 0.618896ZM10.3711 3.4945C10.3711 2.7357 10.9887 2.1189 11.7475 2.1189H20.2519C21.0107 2.1189 21.6275 2.7357 21.6275 3.4945V6.6221H19.5007V5.3453C19.5007 4.4629 18.7831 3.7449 17.9003 3.7449H14.0991C13.2167 3.7449 12.4987 4.4625 12.4987 5.3453V6.6221H10.3719L10.3711 3.4945ZM18.0003 6.6217H14.0335L14.0987 5.2449L18.0003 5.3453V6.6217ZM26.6295 27.8813H5.36952C3.43872 27.8813 1.86792 26.3101 1.86792 24.3797V16.6253H10.9975V18.0017C10.9975 19.5873 12.2879 20.8781 13.8739 20.8781H18.1255C19.7111 20.8781 21.0019 19.5877 21.0019 18.0017V16.6253H30.1323V24.3797C30.1323 26.3101 28.5603 27.8813 26.6295 27.8813ZM12.4975 16.6253H19.5019V18.0017C19.5019 18.7605 18.8851 19.3781 18.1255 19.3781H13.8735C13.1147 19.3781 12.4971 18.7605 12.4971 18.0017L12.4975 16.6253ZM30.1323 11.6237V15.1253H1.86752V11.6237C1.86752 9.69289 3.43872 8.1221 5.36912 8.1221H26.6295C28.5603 8.1217 30.1323 9.69289 30.1323 11.6237Z" fill="#2F80ED"/>
</svg>
