<svg width="90" height="67" viewBox="0 0 90 67" fill="none" xmlns="http://www.w3.org/2000/svg">
<path d="M19.5001 0.169922C8.81659 0.169922 0.120117 8.78113 0.120117 19.3599V47.6399C0.120117 58.2187 8.81659 66.8299 19.5001 66.8299H70.5001C81.1836 66.8299 89.8801 58.2187 89.8801 47.6399V19.3599C89.8801 8.78113 81.1836 0.169922 70.5001 0.169922H19.5001ZM19.5001 6.22992H70.5001C77.899 6.22992 83.7601 12.0336 83.7601 19.3599V47.6399C83.7601 54.9663 77.899 60.7699 70.5001 60.7699H19.5001C12.1012 60.7699 6.24012 54.9663 6.24012 47.6399V19.3599C6.24012 12.0336 12.1012 6.22992 19.5001 6.22992ZM35.852 16.1721C34.3179 16.162 32.9164 17.6856 32.9195 19.3599V47.6399C32.9144 47.7451 32.9144 47.8504 32.9195 47.9556C33.0217 48.9993 33.6305 49.9679 34.4861 50.4476C35.3416 50.9271 36.4176 50.9031 37.2545 50.3859L59.7264 36.2459C60.6131 35.6924 61.1943 34.599 61.1943 33.4842C61.1943 32.3693 60.6131 31.2759 59.7264 30.7224L37.2545 16.5824C36.8284 16.3201 36.3411 16.1775 35.852 16.1721ZM38.7526 24.8518L52.427 33.4999L38.7526 42.1164V24.8518Z" fill="white"/>
</svg>
