<svg width="12" height="12" viewBox="0 0 12 12" fill="none" xmlns="http://www.w3.org/2000/svg">
<path d="M6 0C2.6875 0 0 2.6875 0 6C0 9.3125 2.6875 12 6 12C9.3125 12 12 9.3125 12 6C12 2.6875 9.3125 0 6 0ZM9.0875 4.55L5.5625 8.0875C5.45 8.2 5.2875 8.275 5.125 8.275C4.9625 8.275 4.8 8.2125 4.6875 8.0875L2.9125 6.3125C2.6625 6.0625 2.6625 5.675 2.9125 5.425C3.1625 5.175 3.55 5.175 3.8 5.425L5.125 6.75L8.2125 3.6625C8.4625 3.4125 8.85 3.4125 9.1 3.6625C9.3375 3.9125 9.3375 4.3 9.0875 4.55Z" fill="#514040"/>
</svg>
