<svg width="12" height="10" viewBox="0 0 12 10" fill="none" xmlns="http://www.w3.org/2000/svg">
<path d="M2.90661 3.31507H0.628485V9.98655H2.90661V3.31507Z" fill="#313131"/>
<path d="M2.52361 0.201635C2.30649 0.0701661 2.05133 3.99915e-06 1.79033 1.70346e-10C1.61617 -2.66581e-06 1.44373 0.0312427 1.28292 0.0919395C1.12212 0.152636 0.976119 0.241586 0.853325 0.353675C0.730529 0.465763 0.633361 0.598778 0.567407 0.74507C0.501453 0.891361 0.468015 1.04804 0.469016 1.2061C0.470516 1.44299 0.549283 1.67416 0.69538 1.87046C0.841476 2.06677 1.04836 2.2194 1.28992 2.30911C1.53149 2.39882 1.79692 2.42158 2.05273 2.37454C2.30853 2.32749 2.54326 2.21274 2.72729 2.04475C2.91132 1.87677 3.03641 1.66308 3.08678 1.43064C3.13715 1.19821 3.11054 0.957443 3.01032 0.738716C2.91009 0.51999 2.74074 0.333104 2.52361 0.201635Z" fill="#313131"/>
<path d="M6.56343 3.31473H4.36884L4.36124 10H6.63937V6.69872C6.63937 5.83032 6.82162 4.98949 8.00624 4.98949C9.19087 4.98949 9.19087 5.98884 9.19087 6.76074V9.98622H11.469V6.32655C11.469 4.52773 11.0058 3.14932 8.72765 3.14932C8.29346 3.1339 7.86279 3.22577 7.48163 3.41512C7.10047 3.60448 6.78311 3.88422 6.56343 4.22448V3.31473Z" fill="#313131"/>
</svg>
