<svg width="122" height="25" viewBox="0 0 122 25" fill="none" xmlns="http://www.w3.org/2000/svg">
<path fill-rule="evenodd" clip-rule="evenodd" d="M18.7039 5.75655C18.7039 8.8854 16.1659 11.4219 13.0349 11.4219C9.90386 11.4219 7.3658 8.8854 7.3658 5.75655C7.3658 2.62832 9.90386 0.0917969 13.0349 0.0917969C16.1659 0.0917969 18.7039 2.62832 18.7039 5.75655ZM5.67045 12.8383C2.53949 12.8383 0.00131226 15.3741 0.00131226 18.5029C0.00131226 21.6315 2.53949 24.1678 5.67045 24.1678C8.80153 24.1678 11.3398 21.6315 11.3398 18.5029C11.3398 15.3741 8.80153 12.8383 5.67045 12.8383ZM20.3993 12.8378C17.2683 12.8378 14.7302 15.3741 14.7302 18.5029C14.7302 21.6315 17.2683 24.1678 20.3993 24.1678C23.5303 24.1678 26.0684 21.6315 26.0684 18.5029C26.0684 15.3741 23.5303 12.8378 20.3993 12.8378Z" fill="#A1A89D"/>
<path fill-rule="evenodd" clip-rule="evenodd" d="M46.015 18.4377C46.0889 19.2781 46.7616 20.3479 47.9271 20.3479H48.609C48.8733 20.3479 49.09 20.1313 49.09 19.867V4.88105H49.0871C49.0732 4.62859 48.8645 4.42638 48.609 4.42638H46.496C46.2405 4.42638 46.0318 4.62859 46.0176 4.88105H46.015V6.09875C44.7204 4.50415 42.6793 3.84229 40.6324 3.84229C35.9799 3.84229 32.2083 7.61393 32.2083 12.2668C32.2083 16.9199 35.9799 20.6917 40.6324 20.6917V20.692C42.6793 20.692 44.9099 19.8979 46.0148 18.4358L46.015 18.4377ZM40.6407 17.7431C37.6818 17.7431 35.2829 15.2915 35.2829 12.2668C35.2829 9.24255 37.6818 6.79079 40.6407 6.79079C43.5996 6.79079 45.9981 9.24255 45.9981 12.2668C45.9981 15.2915 43.5996 17.7431 40.6407 17.7431Z" fill="#A1A89D"/>
<path fill-rule="evenodd" clip-rule="evenodd" d="M80.4408 18.4373C80.5147 19.2777 81.1874 20.3474 82.3528 20.3474H83.0347C83.2991 20.3474 83.5155 20.1309 83.5155 19.8665V4.88057H83.5128C83.499 4.6281 83.29 4.4259 83.0347 4.4259H80.9217C80.6662 4.4259 80.4575 4.6281 80.4432 4.88057H80.4408V6.09826C79.146 4.50366 77.1049 3.8418 75.058 3.8418C70.4055 3.8418 66.6341 7.61344 66.6341 12.2663C66.6341 16.9194 70.4055 20.6912 75.058 20.6912V20.6915C77.1049 20.6915 79.3357 19.8974 80.4405 18.4353L80.4408 18.4373ZM75.0662 17.7427C72.1075 17.7427 69.7085 15.291 69.7085 12.2663C69.7085 9.24207 72.1075 6.79031 75.0662 6.79031C78.0253 6.79031 80.4237 9.24207 80.4237 12.2663C80.4237 15.291 78.0253 17.7427 75.0662 17.7427Z" fill="#A1A89D"/>
<path fill-rule="evenodd" clip-rule="evenodd" d="M118.925 18.4373C118.999 19.2777 119.671 20.3474 120.837 20.3474H121.519C121.783 20.3474 122 20.1309 122 19.8665V4.88057H121.997C121.983 4.6281 121.774 4.4259 121.519 4.4259H119.406C119.15 4.4259 118.941 4.6281 118.927 4.88057H118.925V6.09826C117.63 4.50366 115.589 3.8418 113.542 3.8418C108.89 3.8418 105.118 7.61344 105.118 12.2663C105.118 16.9194 108.89 20.6912 113.542 20.6912V20.6915C115.589 20.6915 117.82 19.8974 118.924 18.4353L118.925 18.4373ZM113.55 17.7427C110.591 17.7427 108.193 15.291 108.193 12.2663C108.193 9.24207 110.591 6.79031 113.55 6.79031C116.509 6.79031 118.908 9.24207 118.908 12.2663C118.908 15.291 116.509 17.7427 113.55 17.7427Z" fill="#A1A89D"/>
<path fill-rule="evenodd" clip-rule="evenodd" d="M102.445 18.9536L102.444 11.199H102.445C102.445 6.8278 99.6869 3.87891 95.2896 3.87891C93.1904 3.87891 91.4696 5.09276 90.8619 6.1355C90.7306 5.32016 90.2976 4.46313 88.9553 4.46313H88.2711C88.0065 4.46313 87.7904 4.67979 87.7904 4.94415V18.4758V18.4778V19.9314H87.7931C87.8069 20.1834 88.0158 20.3859 88.2714 20.3859H90.3844C90.4167 20.3859 90.4484 20.3821 90.4791 20.3761C90.4931 20.3734 90.5061 20.3679 90.5197 20.364C90.5354 20.3592 90.5518 20.3555 90.5667 20.3493C90.5855 20.3415 90.6025 20.331 90.6201 20.3213C90.6286 20.3161 90.6376 20.3124 90.6459 20.3069C90.667 20.2933 90.6863 20.2769 90.705 20.2602C90.708 20.2571 90.7118 20.2551 90.7148 20.2522C90.7358 20.2319 90.755 20.2095 90.772 20.1863L90.7721 20.1859C90.8251 20.1132 90.8572 20.0257 90.8624 19.9314H90.8651V11.0788C90.8651 8.73114 92.7685 6.8278 95.1163 6.8278C97.4639 6.8278 99.3673 8.73114 99.3673 11.0788L99.3692 18.4783L99.3697 18.4758C99.3697 18.4823 99.3708 18.4891 99.3708 18.4961V19.9314H99.3736C99.3875 20.1834 99.5962 20.3859 99.8517 20.3859H101.965C101.997 20.3859 102.029 20.3821 102.06 20.3761C102.072 20.3737 102.084 20.3688 102.096 20.3653C102.113 20.3603 102.131 20.356 102.147 20.3493C102.165 20.3422 102.18 20.3322 102.197 20.323C102.207 20.3173 102.217 20.3133 102.227 20.3069C102.246 20.2941 102.264 20.2786 102.282 20.2632C102.286 20.2592 102.291 20.2561 102.295 20.2519C102.316 20.2326 102.333 20.2117 102.35 20.1898C102.351 20.1882 102.352 20.1869 102.353 20.1852C102.405 20.1132 102.437 20.0264 102.443 19.9326C102.443 19.932 102.443 19.9314 102.443 19.9314H102.446V18.9538L102.445 18.9536Z" fill="#A1A89D"/>
<path fill-rule="evenodd" clip-rule="evenodd" d="M54.1369 16.2912C55.5475 17.2684 57.0872 17.743 58.5668 17.743C59.9764 17.743 61.4337 17.0122 61.4337 15.7403C61.4337 14.0421 58.2583 13.7779 56.2632 13.0998C54.2677 12.4217 52.549 11.0199 52.549 8.74992C52.549 5.2764 55.6439 3.8418 58.5326 3.8418C60.3628 3.8418 62.2512 4.44534 63.4755 5.30991C63.8971 5.6294 63.6403 5.9962 63.6403 5.9962L62.4717 7.66537C62.3404 7.85337 62.1107 8.0158 61.781 7.81232C61.4513 7.60897 60.2949 6.79043 58.5326 6.79043C56.7701 6.79043 55.7085 7.60436 55.7085 8.6132C55.7085 9.82297 57.0883 10.2035 58.7045 10.6158C61.5208 11.375 64.5931 12.2875 64.5931 15.7403C64.5931 18.8007 61.7306 20.6921 58.5668 20.6921C56.1693 20.6921 54.1281 20.0086 52.4161 18.7523C52.0595 18.3953 52.3086 18.0639 52.3086 18.0639L53.4715 16.4032C53.7081 16.0927 54.0064 16.201 54.1369 16.2912Z" fill="#A1A89D"/>
</svg>
