<svg width="121" height="21" viewBox="0 0 121 21" fill="none" xmlns="http://www.w3.org/2000/svg">
<path d="M11.8753 10.397C12.8298 10.4733 13.6316 10.8551 14.3188 11.5805C15.0061 12.306 15.3497 13.2986 15.3497 14.5586C15.3497 16.0858 14.8533 17.3457 13.8225 18.2621C12.7916 19.1784 11.3408 19.6365 9.39358 19.6365H0.00128174V1.53918H9.3554C10.9971 1.53918 12.3334 1.99734 13.3261 2.87549C14.3188 3.79181 14.8152 4.97539 14.8152 6.46441C14.8152 7.60982 14.5097 8.48796 13.8607 9.1752C13.2116 9.86244 12.5625 10.2061 11.8371 10.2824L11.8753 10.397ZM4.46835 9.02248H8.36272C9.01178 9.02248 9.5463 8.83158 9.96628 8.44978C10.3481 8.06798 10.5772 7.60982 10.5772 6.96076C10.5772 6.38805 10.3863 5.96807 10.0045 5.62445C9.62266 5.28083 9.12632 5.12811 8.55362 5.12811H4.46835V9.02248ZM8.5918 16.0476C9.27904 16.0476 9.85174 15.8567 10.2335 15.5131C10.6153 15.1695 10.8062 14.6731 10.8062 14.0241C10.8062 13.4132 10.6153 12.955 10.1954 12.6114C9.81356 12.2678 9.27904 12.0769 8.66816 12.0769H4.46835V16.0476H8.5918ZM30.8126 19.6365H26.4983V18.3384C25.4292 19.4838 24.0166 20.0565 22.3366 20.0565C20.7331 20.0565 19.4731 19.522 18.5186 18.4911C17.5641 17.4603 17.0678 16.0858 17.0678 14.4059V6.08261H21.3439V13.4896C21.3439 14.2913 21.573 14.9404 21.993 15.4367C22.413 15.9331 22.9857 16.1622 23.6729 16.1622C24.5511 16.1622 25.2383 15.8567 25.7347 15.2458C26.231 14.635 26.4601 13.6805 26.4601 12.3823V6.08261H30.7744L30.8126 19.6365ZM44.1375 19.6365H32.6834V18.8348L38.0668 9.51882H32.8362V6.08261H44.0611V6.8844L38.6777 16.2003H44.0993V19.6365H44.1375ZM57.4241 19.6365H46.0083V18.8348L51.3535 9.51882H46.1228V6.08261H57.3478V6.8844L51.9644 16.2003H57.3859L57.4241 19.6365ZM63.8384 9.28974H71.6653V13.1841H63.8384V19.6747H59.3713V1.53918H72.3525V5.43355H63.8384V9.28974ZM103.317 13.9859H93.3898C93.657 15.6658 94.917 16.6203 96.7878 16.6203C98.2768 16.6203 99.7658 16.0476 100.873 15.1695L102.515 18.033C100.988 19.3311 99.0404 20.0565 96.7878 20.0565C92.2444 20.0565 89.1518 17.3076 89.1518 12.8787C89.1518 10.7788 89.839 9.06066 91.2135 7.72436C92.588 6.38805 94.3061 5.70081 96.3296 5.70081C98.2768 5.70081 99.9185 6.34987 101.255 7.68618C102.591 9.02248 103.278 10.7406 103.317 12.9169V13.9859ZM94.5733 9.7479C94.0388 10.1297 93.657 10.6642 93.4661 11.3133H99.0404C98.8495 10.626 98.5059 10.0915 98.0095 9.70972C97.5132 9.3661 96.9405 9.1752 96.3296 9.1752C95.6806 9.1752 95.1079 9.3661 94.5733 9.7479ZM87.51 13.9859H77.5832C77.8505 15.6658 79.1104 16.6203 80.9812 16.6203C82.4703 16.6203 83.9593 16.0476 85.0665 15.1695L86.7083 18.033C85.181 19.3311 83.2339 20.0565 80.9812 20.0565C76.4378 20.0565 73.3452 17.3076 73.3452 12.8787C73.3452 10.7788 74.0325 9.06066 75.4069 7.72436C76.7814 6.38805 78.4995 5.70081 80.5231 5.70081C82.4703 5.70081 84.112 6.34987 85.4483 7.68618C86.7846 9.02248 87.4718 10.7406 87.51 12.9169V13.9859ZM78.7668 9.7479C78.2323 10.1297 77.8505 10.6642 77.6596 11.3133H83.2339C83.043 10.626 82.6993 10.0915 82.203 9.70972C81.7067 9.3661 81.134 9.1752 80.5231 9.1752C79.874 9.1752 79.3013 9.3661 78.7668 9.7479ZM120.001 19.6365H115.687V18.5675C114.58 19.5602 113.205 20.0565 111.487 20.0565C109.654 20.0565 108.089 19.3693 106.791 18.033C105.493 16.6967 104.844 14.9786 104.844 12.8787C104.844 10.7788 105.493 9.06066 106.791 7.72436C108.089 6.38805 109.654 5.70081 111.487 5.70081C113.205 5.70081 114.618 6.19715 115.687 7.18984V0.202881H120.001V19.6365ZM114.732 15.3986C115.381 14.7495 115.725 13.9095 115.725 12.8787C115.725 11.886 115.381 11.046 114.732 10.3588C114.083 9.70972 113.282 9.3661 112.403 9.3661C111.449 9.3661 110.685 9.70972 110.074 10.3588C109.464 11.0078 109.158 11.8478 109.158 12.8787C109.158 13.9095 109.464 14.7877 110.074 15.4367C110.685 16.0858 111.449 16.3912 112.403 16.3912C113.282 16.3912 114.045 16.0476 114.732 15.3986Z" fill="#A1A89D"/>
</svg>
