<svg width="12" height="9" viewBox="0 0 12 9" fill="none" xmlns="http://www.w3.org/2000/svg">
<path d="M11.3499 1.00421C10.9523 1.18942 10.4488 1.36326 9.99759 1.42105C10.4565 1.13495 11.1844 0.539053 11.3499 0C10.9212 0.264789 10.1459 0.547579 9.64014 0.649895C9.23626 0.199895 8.66019 0 8.02192 0C6.79586 0 5.94077 1.09184 5.94077 2.36842V3.31579C4.13774 3.31579 2.37978 1.87247 1.28579 0.473684C1.08798 0.82624 0.984131 1.22825 0.985139 1.63753C0.985139 2.49916 1.73836 3.37358 2.33471 3.78947C1.97095 3.77763 1.28219 3.48584 0.982435 3.31579V3.34279C0.982435 4.464 1.73114 5.22521 2.7458 5.43742C2.56054 5.49095 2.33471 5.68421 1.46565 5.68421C1.74782 6.60079 3.16636 7.08537 4.13774 7.10526C3.37776 7.72437 2.02278 8.05263 0.982435 8.05263C0.802583 8.05263 0.705219 8.06305 0.531677 8.04174C1.51343 8.69542 2.88463 9 4.13774 9C8.22025 9 10.4483 5.72305 10.4483 2.66684C10.4483 2.56642 10.4452 2.23011 10.4402 2.13158C10.8766 1.80853 11.0533 1.47032 11.3499 1.00421Z" fill="#313131"/>
</svg>
