<svg width="28" height="28" viewBox="0 0 28 28" fill="none" xmlns="http://www.w3.org/2000/svg">
<path d="M14 28C21.732 28 28 21.732 28 14C28 6.26801 21.732 0 14 0C6.26801 0 0 6.26801 0 14C0 21.732 6.26801 28 14 28Z" fill="#4353FF"/>
<path d="M18.1124 12.3375L16.8437 16.3362C16.8437 16.03 15.9687 9.39746 15.9687 9.39746C13.9562 9.39746 12.8887 10.8237 12.3287 12.3375L10.7799 16.345C10.7799 16.0562 10.5612 12.3725 10.5612 12.3725C10.4865 11.575 10.1219 10.8326 9.53656 10.286C8.95118 9.73929 8.18564 9.42628 7.38495 9.40621L9.02995 19.4512C11.1299 19.4512 12.2674 18.025 12.8537 16.5112L14.1662 13.0987C14.1662 13.2387 15.0412 19.4512 15.0412 19.4512C15.8999 19.4501 16.736 19.1756 17.4282 18.6674C18.1204 18.1593 18.6328 17.4439 18.8912 16.625L21.8662 9.39746C19.7662 9.39746 18.6637 10.8237 18.1037 12.3375H18.1124Z" fill="white"/>
</svg>
