<svg width="28" height="42" viewBox="0 0 28 42" fill="none" xmlns="http://www.w3.org/2000/svg">
<path d="M7 42C10.864 42 14 38.864 14 35V28H7C3.136 28 0 31.136 0 35C0 38.864 3.136 42 7 42Z" fill="#0ACF83"/>
<path d="M0 21C0 17.136 3.136 14 7 14H14V28H7C3.136 28 0 24.864 0 21Z" fill="#A259FF"/>
<path d="M0.000244141 7C0.000244141 3.136 3.13624 0 7.00025 0H14.0002V14H7.00025C3.13624 14 0.000244141 10.864 0.000244141 7Z" fill="#F24E1E"/>
<path d="M14 0H21C24.864 0 28 3.136 28 7C28 10.864 24.864 14 21 14H14V0Z" fill="#FF7262"/>
<path d="M28 21C28 24.864 24.864 28 21 28C17.136 28 14 24.864 14 21C14 17.136 17.136 14 21 14C24.864 14 28 17.136 28 21Z" fill="#1ABCFE"/>
</svg>
