<svg width="138" height="26" viewBox="0 0 138 26" fill="none" xmlns="http://www.w3.org/2000/svg">
<path d="M120.642 0.398926C120.145 0.398926 119.743 0.801338 119.743 1.29754V7.60004H136.391L128.809 0.399507L120.642 0.398926Z" fill="#A1A89D"/>
<path d="M137.001 9.50596C137.001 9.00859 136.602 8.60791 136.102 8.60791H129.801V25.2567L136.998 17.6717L137.001 9.50596Z" fill="#A1A89D"/>
<path d="M127.891 25.8604C128.387 25.8604 128.789 25.4574 128.789 24.9601V18.6599H112.14L119.723 25.8593L127.891 25.8604Z" fill="#A1A89D"/>
<path d="M111.532 16.7533C111.532 17.2501 111.934 17.6548 112.432 17.6548H118.732V1.00488L111.533 8.58756L111.532 16.7533Z" fill="#A1A89D"/>
<path d="M35.2227 3.43804V11.1267H24.5111V3.43804L20.6097 3.43457V22.8209H24.5111V14.4924H35.2227V22.8209H39.1304V3.43804H35.2227Z" fill="#A1A89D"/>
<path d="M87.125 3.43799V22.8162H104.241L102.073 19.4047H91.0374V14.4924H101.724V11.2065H91.0374V6.76959H102.055L104.178 3.43799H87.125Z" fill="#A1A89D"/>
<path d="M6.10796 3.43335C2.04971 3.43335 0 5.9005 0 9.49035V16.7268C0 20.8811 2.64143 22.8208 6.08769 22.8208L18.3279 22.8197L16.0588 19.2761H6.84387C4.88624 19.2761 4.03337 18.5686 4.03337 16.3776V9.81228C4.03337 7.69427 4.75134 6.86802 6.89598 6.86802H16.1549L18.3337 3.43335H6.10796Z" fill="#A1A89D"/>
<path d="M70.0017 3.42895C67.6579 3.42895 65.2556 4.83767 65.2556 8.4611V9.39214C65.2556 13.1696 67.567 14.6107 69.8795 14.6206H77.9966C78.8397 14.6206 79.5246 14.7607 79.5246 16.1856L79.5235 17.8317C79.502 19.1119 78.8634 19.4049 77.9677 19.4049H67.2891L65.1016 22.8164H78.219C81.3821 22.8164 83.5296 21.2427 83.5296 17.6077V16.2719C83.5296 12.7573 81.5344 11.0967 78.4407 11.0967H70.6901C69.8309 11.0967 69.2322 10.8622 69.2322 9.58958V8.24918C69.2322 7.16528 69.6427 6.76982 70.6438 6.76982L80.8135 6.76576L82.939 3.42432L70.0017 3.42895Z" fill="#A1A89D"/>
<path d="M50.4651 3.43848L41.2733 22.8202H45.6176L47.4079 18.8175H57.3964L59.1808 22.8202H63.5442L54.3311 3.43848H50.4651ZM52.3926 7.46257L55.9245 15.5183H48.8832L52.3926 7.46257Z" fill="#A1A89D"/>
</svg>
