<svg width="133" height="33" viewBox="0 0 133 33" fill="none" xmlns="http://www.w3.org/2000/svg">
<path d="M0.00128174 6.80729C0.00128174 6.80729 3.30548 20.3722 3.83282 22.574C4.44831 25.1439 5.55733 26.0897 8.75483 25.4518L10.8181 17.0417C11.341 14.9527 11.6917 13.4633 12.0279 11.3383H12.087C12.3232 13.4842 12.6595 14.9589 13.0898 17.049C13.0898 17.049 13.9297 20.867 14.3598 22.8723C14.791 24.877 15.9912 26.1404 19.1231 25.4526L24.0393 6.80872H20.0701L18.3917 14.8693C17.9405 17.2157 17.531 19.049 17.2153 21.1955H17.1593C16.8724 19.0704 16.5075 17.3097 16.0487 15.0237L14.3012 6.80872H10.1656L8.29633 14.8167C7.76675 17.2501 7.27143 19.2151 6.95645 21.2888H6.89941C6.57684 19.3359 6.14721 16.8663 5.68197 14.5107C5.68197 14.5107 4.57139 8.78301 4.18173 6.80872L0.0016682 6.80925L0.00128174 6.80729ZM37.8393 6.80729V25.4511H41.6183V21.4922V6.8064H37.8393V6.80729ZM91.063 6.80729V20.5612C91.063 22.4575 91.4192 23.7861 92.1813 24.5977C92.8471 25.3076 93.9438 25.7673 95.2579 25.7673C96.3752 25.7673 97.4745 25.555 97.9925 25.3616L97.9438 22.4029C97.5583 22.498 97.1149 22.574 96.5083 22.574C95.221 22.574 94.7893 21.748 94.7893 20.0454V14.7832H98.0805V11.2161H94.7893V6.80734H91.0628L91.063 6.80729ZM29.3941 11.1293C27.0455 11.1293 25.1812 11.79 24.165 12.3783L24.9087 14.9296C25.8387 14.3422 27.3196 13.8559 28.7217 13.8559C31.0432 13.85 31.4227 15.171 31.4227 16.0183V16.2187C26.3643 16.2111 23.1691 17.9647 23.1691 21.5394C23.1691 23.7219 24.7956 25.7672 27.6239 25.7672C29.365 25.7672 30.8211 25.0715 31.6938 23.9569H31.7793C31.7793 23.9569 32.3572 26.3776 35.5409 25.4519C35.3736 24.4444 35.3193 23.3702 35.3193 22.0764V17.0958C35.3193 13.9214 33.9665 11.1294 29.3941 11.1294L29.3941 11.1293ZM51.9997 11.1293C49.6349 11.1293 48.5722 12.33 47.9279 13.3486H47.8719V11.4455H44.2654V25.452H48.0646V17.2378C48.0646 16.8527 48.1085 16.4455 48.2427 16.0912C48.5574 15.2642 49.3254 14.2968 50.5517 14.2968C52.0846 14.2968 52.8019 15.5952 52.8019 17.4691V25.4519H56.5969V17.1383C56.5969 16.7707 56.6472 16.3279 56.7552 16.0029C57.0672 15.0621 57.8952 14.2967 59.035 14.2967C60.589 14.2967 61.3349 15.5725 61.3349 17.7774V25.4519H65.1326V17.2025C65.1326 12.8519 62.9276 11.1294 60.4385 11.1294C59.3362 11.1294 58.4661 11.4063 57.6795 11.8902C57.0183 12.2967 56.4264 12.8742 55.909 13.6347H55.853C55.251 12.1252 53.8387 11.1294 51.999 11.1294L51.9997 11.1293ZM72.8617 11.1293C70.5137 11.1293 68.6497 11.79 67.6327 12.3783L68.3774 14.9296C69.3065 14.3422 70.7882 13.8559 72.1897 13.8559C74.5095 13.85 74.8899 15.171 74.8899 16.0183V16.2187C69.8322 16.2111 66.6367 17.9647 66.6367 21.5394C66.6367 23.7219 68.2641 25.7672 71.0939 25.7672C72.8335 25.7672 74.2901 25.0715 75.1612 23.9569H75.2471C75.2471 23.9569 75.8249 26.3776 79.009 25.4519C78.8415 24.4444 78.7878 23.3702 78.7878 22.0764V17.0958C78.7878 13.9214 77.4346 11.1294 72.8617 11.1294L72.8617 11.1293ZM88.6384 11.1293C87.1836 11.1293 85.5285 12.0701 84.8338 14.0869H84.7277V11.4453H81.3077V25.4518H85.2064V18.2796C85.2064 17.8927 85.2298 17.5553 85.2909 17.246C85.5793 15.7436 86.7263 14.7832 88.3725 14.7832C88.8244 14.7832 89.1479 14.8322 89.4978 14.8828V11.216C89.2044 11.1566 89.0037 11.1292 88.6386 11.1292L88.6384 11.1293ZM31.5447 18.7007V20.448C31.5447 20.7065 31.5223 20.9732 31.4508 21.2064C31.1584 22.1768 30.1549 22.9969 28.9005 22.9969C27.8547 22.9969 27.0239 22.4022 27.0239 21.1443C27.0239 19.2201 29.1381 18.6882 31.5449 18.7007H31.5447ZM75.0124 18.7007V20.448C75.0124 20.7065 74.9894 20.9732 74.9185 21.2064C74.626 22.1768 73.6229 22.9969 72.3685 22.9969C71.3224 22.9969 70.4915 22.4022 70.4915 21.1443C70.4915 19.2201 72.6057 18.6882 75.0125 18.7007H75.0124Z" fill="#A1A89D"/>
<path d="M118.512 0.0651855C117.292 0.0651855 116.322 0.747754 116.322 1.5787L117.063 9.98403C117.145 10.4904 117.764 10.8811 118.512 10.8811C119.262 10.8801 119.879 10.4898 119.963 9.98403L120.707 1.5787C120.707 0.747825 119.735 0.0652569 118.513 0.0652569L118.512 0.0651855ZM106.437 6.80754C105.804 6.82259 105.085 7.30302 104.627 8.09802C104.015 9.15663 104.123 10.3396 104.839 10.7547L112.475 14.317C112.952 14.4948 113.6 14.1554 113.975 13.5075C113.975 13.5074 113.975 13.5072 113.975 13.5071C114.352 12.856 114.322 12.1239 113.926 11.7991L107.03 6.95332C106.851 6.84939 106.649 6.80263 106.438 6.80764L106.437 6.80754ZM130.586 6.80754C130.375 6.80252 130.174 6.84929 129.995 6.95321L123.098 11.799C122.704 12.1238 122.674 12.8559 123.049 13.507L123.05 13.5074C123.426 14.1553 124.072 14.4947 124.549 14.3169L132.187 10.7547C132.907 10.3397 133.01 9.15676 132.402 8.09809C131.942 7.30308 131.221 6.82267 130.588 6.80761L130.586 6.80754ZM112.76 17.8972C112.661 17.8958 112.565 17.9111 112.476 17.9449L104.841 21.503C104.124 21.9198 104.016 23.1033 104.628 24.163C105.238 25.2196 106.314 25.7218 107.03 25.3075L113.927 20.4654C114.323 20.1367 114.353 19.4048 113.976 18.7543L113.979 18.7558C113.674 18.2259 113.188 17.9029 112.76 17.8971L112.76 17.8972ZM124.267 17.8972C123.839 17.903 123.354 18.226 123.049 18.7559L123.051 18.7544C122.676 19.4049 122.705 20.1368 123.1 20.4656L129.997 25.3076C130.712 25.722 131.788 25.2197 132.401 24.1632C133.009 23.1034 132.906 21.9199 132.187 21.5031L124.551 17.945C124.461 17.9112 124.365 17.8959 124.267 17.8973L124.267 17.8972ZM118.511 21.3807C117.763 21.3816 117.146 21.7705 117.064 22.2756L116.323 30.6806C116.323 31.5129 117.293 32.1941 118.513 32.1941C119.735 32.1941 120.706 31.5129 120.706 30.6806L119.964 22.2756C119.88 21.7705 119.263 21.3816 118.513 21.3807H118.511H118.511Z" fill="#A1A89D"/>
</svg>
