<svg width="115" height="20" viewBox="0 0 115 20" fill="none" xmlns="http://www.w3.org/2000/svg">
<path d="M5.4138 19.6078L0 0H4.0051L7.70637 14.5378L11.7391 0H14.9984L19.0588 14.5378L22.76 0H26.7651L21.3513 19.6078H17.0148L13.3688 6.66667L9.75036 19.6078H5.4138Z" fill="#313131"/>
<path d="M30.1751 14.0896C30.6539 15.845 31.9521 16.7227 34.0697 16.7227C35.4324 16.7227 36.4636 16.2558 37.1633 15.3221L40.0359 17.0028C38.6733 19.0009 36.6661 20 34.0145 20C31.7311 20 29.8989 19.2997 28.5178 17.8992C27.1367 16.4986 26.4462 14.7339 26.4462 12.605C26.4462 10.4949 27.1275 8.7395 28.4902 7.33894C29.8528 5.9197 31.6022 5.21008 33.7383 5.21008C35.7638 5.21008 37.4303 5.9197 38.7377 7.33894C40.0636 8.75817 40.7265 10.5135 40.7265 12.605C40.7265 13.0719 40.6804 13.5668 40.5884 14.0896H30.1751ZM30.1198 11.2885H37.1633C36.9608 10.3361 36.5372 9.62652 35.8927 9.15966C35.2666 8.69281 34.5485 8.45938 33.7383 8.45938C32.7807 8.45938 31.9889 8.71148 31.3628 9.21569C30.7367 9.70121 30.3224 10.3922 30.1198 11.2885Z" fill="#313131"/>
<path d="M51.2517 5.21008C53.1116 5.21008 54.6952 5.92904 56.0026 7.36695C57.3284 8.78618 57.9914 10.5322 57.9914 12.605C57.9914 14.6779 57.3284 16.4332 56.0026 17.8711C54.6952 19.2904 53.1116 20 51.2517 20C49.3182 20 47.8267 19.3184 46.7771 17.9552V19.6078H43.2139V0H46.7771V7.2549C47.8267 5.89169 49.3182 5.21008 51.2517 5.21008ZM47.8543 15.4622C48.5725 16.1905 49.484 16.5546 50.5888 16.5546C51.6937 16.5546 52.6052 16.1905 53.3233 15.4622C54.0599 14.7152 54.4282 13.7628 54.4282 12.605C54.4282 11.4472 54.0599 10.5042 53.3233 9.77591C52.6052 9.02894 51.6937 8.65546 50.5888 8.65546C49.484 8.65546 48.5725 9.02894 47.8543 9.77591C47.1361 10.5042 46.7771 11.4472 46.7771 12.605C46.7771 13.7628 47.1361 14.7152 47.8543 15.4622Z" fill="#313131"/>
<path d="M63.1272 19.2717C62.6669 19.7386 62.1144 19.972 61.4699 19.972C60.8254 19.972 60.273 19.7386 59.8126 19.2717C59.3523 18.8049 59.1221 18.2446 59.1221 17.591C59.1221 16.9374 59.3523 16.3772 59.8126 15.9104C60.273 15.4435 60.8254 15.2101 61.4699 15.2101C62.1144 15.2101 62.6669 15.4435 63.1272 15.9104C63.5876 16.3772 63.8177 16.9374 63.8177 17.591C63.8177 18.2446 63.5876 18.8049 63.1272 19.2717Z" fill="#313131"/>
<path d="M74.6337 0C77.2853 0 79.495 0.943044 81.2628 2.82913C83.049 4.71522 83.9421 7.04015 83.9421 9.80392C83.9421 12.5677 83.049 14.8926 81.2628 16.7787C79.495 18.6648 77.2853 19.6078 74.6337 19.6078H66.9549V0H74.6337ZM74.6337 15.9104C76.3094 15.9104 77.672 15.3501 78.7217 14.2297C79.7713 13.0906 80.2961 11.6153 80.2961 9.80392C80.2961 7.99253 79.7713 6.52661 78.7217 5.40616C77.672 4.26704 76.3094 3.69748 74.6337 3.69748H70.7667V15.9104H74.6337Z" fill="#313131"/>
<path d="M89.491 14.0896C89.9698 15.845 91.268 16.7227 93.3856 16.7227C94.7483 16.7227 95.7795 16.2558 96.4792 15.3221L99.3518 17.0028C97.9892 19.0009 95.982 20 93.3304 20C91.047 20 89.2148 19.2997 87.8337 17.8992C86.4526 16.4986 85.7621 14.7339 85.7621 12.605C85.7621 10.4949 86.4434 8.7395 87.8061 7.33894C89.1687 5.9197 90.9181 5.21008 93.0541 5.21008C95.0797 5.21008 96.7462 5.9197 98.0536 7.33894C99.3794 8.75817 100.042 10.5135 100.042 12.605C100.042 13.0719 99.9963 13.5668 99.9043 14.0896H89.491ZM89.4357 11.2885H96.4792C96.2766 10.3361 95.8531 9.62652 95.2086 9.15966C94.5825 8.69281 93.8644 8.45938 93.0541 8.45938C92.0966 8.45938 91.3048 8.71148 90.6787 9.21569C90.0526 9.70121 89.6383 10.3922 89.4357 11.2885Z" fill="#313131"/>
<path d="M111.078 5.60224H115L109.752 19.6078H105.692L100.444 5.60224H104.366L107.708 15.4062L111.078 5.60224Z" fill="#313131"/>
</svg>
