<svg width="28" height="20" viewBox="0 0 28 20" fill="none" xmlns="http://www.w3.org/2000/svg">
<path d="M8.17833 7.16106H7.077L6.47617 11.3537H7.45383C8.1025 11.3537 8.5855 11.1875 8.90283 10.8566C9.22017 10.5241 9.43367 9.97148 9.5445 9.19565C9.65183 8.45148 9.60283 7.92581 9.39983 7.62023C9.19567 7.31465 8.78967 7.16106 8.17833 7.16106ZM14 0.00598145C6.2685 0.00598145 0 4.48048 0 9.99998C0 15.5195 6.2685 19.9956 14 19.9956C21.7315 19.9956 28 15.5195 28 9.99998C28 4.48048 21.7315 0.00598145 14 0.00598145ZM10.1967 11.8034C9.89217 12.1992 9.52583 12.4969 9.12683 12.6758C8.73483 12.8468 8.23433 12.9355 7.62767 12.9355H6.24983L5.86833 15.5971H4.26067L5.69567 5.5809H8.78733C9.71717 5.5809 10.395 5.91181 10.822 6.57523C11.249 7.23706 11.3773 8.16173 11.207 9.34923C11.1418 9.81912 11.0216 10.2718 10.8512 10.6903C10.6843 11.0941 10.4662 11.4661 10.1967 11.8034ZM14.8913 12.9355L15.5248 8.50373C15.5983 8.00023 15.5703 7.65507 15.4455 7.47298C15.3207 7.28932 15.0535 7.19748 14.644 7.19748H13.37L12.5487 12.9371H10.9527L12.3877 2.91931H13.9825L13.601 5.58248H15.022C15.9168 5.58248 16.5328 5.79465 16.8723 6.2174C17.2118 6.64015 17.3133 7.32573 17.1792 8.27415L16.5118 12.9355H14.8913ZM23.7545 9.34923C23.6903 9.81951 23.5701 10.2725 23.3987 10.6903C23.2318 11.0941 23.0137 11.4661 22.7442 11.8034C22.4395 12.198 22.0741 12.496 21.6743 12.6758C21.2823 12.8468 20.7818 12.9355 20.174 12.9355H18.7973L18.4158 15.5986H16.8082L18.2432 5.58248H21.3337C22.2635 5.58248 22.9413 5.9134 23.3683 6.57682C23.7953 7.23707 23.9248 8.16173 23.7545 9.34923ZM20.727 7.16106H19.6268L19.0248 11.3537H20.0025C20.6523 11.3537 21.1353 11.1875 21.4515 10.8566C21.7688 10.5241 21.9823 9.97148 22.0943 9.19565C22.2017 8.45148 22.1515 7.92581 21.9485 7.62023C21.7455 7.31465 21.3372 7.16106 20.727 7.16106Z" fill="black"/>
</svg>
