<svg width="28" height="32" viewBox="0 0 28 32" fill="none" xmlns="http://www.w3.org/2000/svg">
<path d="M24.2454 5.97178C24.1308 5.96089 21.6839 5.77941 21.6839 5.77941C21.6839 5.77941 19.9832 4.08333 19.797 3.89667C19.6104 3.70896 19.2459 3.76496 19.1038 3.808C19.0836 3.8137 18.733 3.92311 18.1528 4.102C17.5845 2.45985 16.5833 0.950963 14.8208 0.950963C14.7721 0.950963 14.7218 0.953037 14.671 0.956148C14.1701 0.290889 13.5489 0 13.0122 0C8.90607 0 6.944 5.15978 6.32904 7.78193C4.73304 8.27763 3.59852 8.63126 3.45541 8.67793C2.56304 8.95896 2.53556 8.98696 2.41993 9.83007C2.33074 10.4684 0 28.5818 0 28.5818L18.1596 32.0009L28 29.861C28 29.861 24.5461 6.3923 24.5244 6.23104C24.5026 6.0703 24.3616 5.98111 24.2454 5.97178ZM14.5361 5.04933C14.5361 5.11104 14.5351 5.16911 14.5351 5.2277C13.5354 5.53933 12.4507 5.87637 11.3613 6.216C11.9726 3.84637 13.1175 2.70044 14.1198 2.26852C14.3713 2.90422 14.5361 3.81785 14.5361 5.04933ZM12.8987 1.10756C13.0781 1.10756 13.2554 1.1677 13.4265 1.28644C12.11 1.90815 10.7001 3.47667 10.1039 6.60696C9.23326 6.87763 8.38289 7.14311 7.59526 7.38785C8.29319 4.99904 9.94933 1.10756 12.8987 1.10756ZM13.6064 15.0619C13.6064 15.0619 12.5435 14.4921 11.2415 14.4921C9.33022 14.4921 9.23378 15.6971 9.23378 15.9999C9.23378 17.6566 13.5307 18.2918 13.5307 22.1719C13.5307 25.2249 11.605 27.1901 9.00615 27.1901C5.88881 27.1901 4.29385 25.2399 4.29385 25.2399L5.12815 22.4684C5.12815 22.4684 6.76667 23.8835 8.15111 23.8835C9.05333 23.8835 9.42096 23.1679 9.42096 22.6458C9.42096 20.4846 5.89556 20.3881 5.89556 16.8368C5.89556 13.8496 8.02978 10.9563 12.3397 10.9563C13.9984 10.9563 14.8198 11.4349 14.8198 11.4349L13.6064 15.0619ZM15.6126 4.89274C15.6126 4.78333 15.6136 4.67652 15.6136 4.55881C15.6136 3.53941 15.4721 2.71756 15.246 2.0663C16.1544 2.17985 16.7596 3.21896 17.149 4.41415C16.6932 4.55726 16.1747 4.718 15.6126 4.89274Z" fill="#95C675"/>
<path d="M24.2454 5.97178C24.1308 5.96089 21.6839 5.77941 21.6839 5.77941C21.6839 5.77941 19.9832 4.08333 19.797 3.89667C19.6104 3.70896 19.2459 3.76496 19.1038 3.808C19.0836 3.8137 18.733 3.92311 18.1528 4.102C17.5845 2.45985 16.5833 0.950963 14.8208 0.950963C14.7721 0.950963 14.7218 0.953037 14.671 0.956148C14.1701 0.290889 13.5489 0 13.0122 0C8.90607 0 7.89289 5.15978 7.27793 7.78193C5.68193 8.27763 4.45719 11.0066 4.31252 11.0522C3.42119 11.3333 3.3937 11.3613 3.27756 12.2049C3.18785 12.8427 0 28.5818 0 28.5818L18.1596 32.0009L28 29.861C28 29.861 24.5461 6.3923 24.5244 6.23104C24.5026 6.0703 24.3616 5.98111 24.2454 5.97178ZM14.5361 5.04933C14.5361 5.11104 14.5351 5.16911 14.5351 5.2277C13.5354 5.53933 12.4507 5.87637 11.3613 6.216C11.9726 3.84637 13.1175 2.70044 14.1198 2.26852C14.3713 2.90422 14.5361 3.81785 14.5361 5.04933ZM12.8987 1.10756C13.0781 1.10756 13.2554 1.1677 13.4265 1.28644C12.11 1.90815 10.7001 3.47667 10.1039 6.60696C9.23326 6.87763 8.38289 7.14311 7.59526 7.38785C8.29319 4.99904 9.94933 1.10756 12.8987 1.10756ZM13.6064 15.0619C13.6064 15.0619 12.5435 14.4921 11.2415 14.4921C9.33022 14.4921 9.23378 15.6971 9.23378 15.9999C9.23378 17.6566 13.5307 18.2918 13.5307 22.1719C13.5307 25.2249 11.605 27.1901 9.00615 27.1901C5.88881 27.1901 4.29385 25.2399 4.29385 25.2399L5.12815 22.4684C5.12815 22.4684 6.76667 23.8835 8.15111 23.8835C9.05333 23.8835 9.42096 23.1679 9.42096 22.6458C9.42096 20.4846 5.89556 20.3881 5.89556 16.8368C5.89556 13.8496 8.02978 10.9563 12.3397 10.9563C13.9984 10.9563 14.8198 11.4349 14.8198 11.4349L13.6064 15.0619ZM15.6126 4.89274C15.6126 4.78333 15.6136 4.67652 15.6136 4.55881C15.6136 3.53941 15.4721 2.71756 15.246 2.0663C16.1544 2.17985 16.7596 3.21896 17.149 4.41415C16.6932 4.55726 16.1747 4.718 15.6126 4.89274Z" fill="#79B259"/>
<path d="M18.1595 32.0003L28 29.8609C28 29.8609 24.5461 6.39226 24.5243 6.231C24.5026 6.06974 24.362 5.98107 24.2454 5.97174C24.1308 5.96085 21.6839 5.77937 21.6839 5.77937C21.6839 5.77937 19.9832 4.08329 19.797 3.89663C19.6975 3.79603 19.5486 3.76752 19.4081 3.76648C19.0348 4.39907 19.112 5.60048 19.112 5.60048L17.9547 31.9614L18.1595 32.0003Z" fill="#55932C"/>
<path d="M14.8208 0.951451C14.7721 0.951451 14.7218 0.953525 14.671 0.956636C14.1701 0.291377 13.5489 0.000488281 13.0122 0.000488281C8.92267 0.000488281 6.95904 5.11982 6.3363 7.75078L7.60512 7.35723C8.30719 4.96738 9.96179 1.10753 12.8987 1.10753C13.0781 1.10753 13.2554 1.16767 13.4265 1.28641C12.1136 1.90604 10.7074 3.46886 10.109 6.58204L11.369 6.19316C11.9819 3.83856 13.1222 2.69886 14.1208 2.26849C14.3718 2.90471 14.5372 3.81782 14.5372 5.0493C14.5372 5.1053 14.5372 5.15871 14.5362 5.21212L15.6136 4.87871C15.6136 4.77501 15.6147 4.6713 15.6147 4.55878C15.6147 3.53938 15.4731 2.71753 15.247 2.06627C16.1524 2.1793 16.757 3.21375 17.1459 4.40375L18.1507 4.09212C17.5809 2.45464 16.5802 0.951451 14.8208 0.951451Z" fill="#4A7A2B"/>
<path d="M22.0946 5.81048C21.8488 5.79129 21.6834 5.77937 21.6834 5.77937C21.6834 5.77937 19.9827 4.08329 19.7965 3.89663C19.697 3.79603 19.5482 3.76752 19.4076 3.76648C19.0343 4.39907 19.1116 5.60048 19.1116 5.60048L17.9542 31.9614L18.1596 32.0003L23.3956 30.8617L22.0946 5.81048Z" fill="#4C822A"/>
</svg>
